#N canvas 793 240 1072 913 12;
#X obj 26 536 freeverb~;
#X obj 43 562 dac~;
#X msg 715 19 \; pd dsp 1;
#X msg 25 42 roomsize \$1;
#X msg 25 87 damping \$1;
#X msg 25 131 width \$1;
#X msg 25 175 wet \$1;
#X msg 25 219 dry \$1;
#X msg 59 242 print;
#X msg 78 281 freeze \$1;
#X msg 83 318 bypass \$1;
#X obj 83 299 tgl 15 0 empty empty empty 0 -6 0 8 #fcfcfc #000000 #000000 0 1;
#X obj 78 262 tgl 15 0 empty empty empty 0 -6 0 8 #fcfcfc #000000 #000000 0 1;
#X obj 37 196 hsl 60 18 0 1 0 1 empty empty dry 2 9 1 12 #d8fcd8 #000000 #000000 600 0;
#X obj 37 152 hsl 60 18 0 1 0 1 empty empty wet 2 9 1 12 #d8fcd8 #000000 #000000 4400 0;
#X obj 37 108 hsl 60 18 0 1 0 1 empty empty width 2 9 1 12 #fcfcc8 #000000 #000000 5900 0;
#X obj 37 64 hsl 60 18 0 2 0 1 empty empty damping 2 9 1 12 #fce0e0 #000000 #000000 500 0;
#X obj 37 19 hsl 60 18 0.11 1.1 0 1 empty empty roomsize 2 9 1 12 #fce0e0 #000000 #000000 4500 0;
#X floatatom 7 23 3 0 0 0 - - - 0;
#X floatatom 7 68 3 0 0 0 - - - 0;
#X floatatom 7 113 3 0 0 0 - - - 0;
#X floatatom 7 156 3 0 0 0 - - - 0;
#X floatatom 7 200 3 0 0 0 - - - 0;
#N canvas 0 0 450 300 (subpatch) 0;
#X array sample 155944 float 0;
#X coords 0 1 155943 -1 250 200 1 0 0;
#X restore 513 468 graph;
#X obj 504 99 soundfiler;
#X floatatom 504 125 7 0 0 0 - - - 0;
#X text 571 37 load table;
#X obj 504 37 loadbang;
#X msg 354 93 stop;
#X obj 466 159 bng 19 250 50 0 empty empty empty 17 7 0 10 #dfdfdf #000000 #000000;
#X obj 364 129 tabplay~ sample;
#X msg 322 44 set sample;
#X obj 336 68 bng 17 250 50 0 empty empty empty 17 7 0 10 #dfdfdf #000000 #000000;
#X obj 504 160 expr 44100 / $f1;
#X obj 558 187 t b f;
#X floatatom 504 222 5 0 0 0 - - - 0;
#X obj 504 258 *;
#X obj 504 298 phasor~;
#X obj 504 349 *~;
#X obj 616 186 hsl 162 19 -2 2 0 0 empty empty empty -2 -10 0 12 #c6feff #000000 #000000 0 1;
#X obj 504 390 tabread4~ sample;
#X msg 672 403 0;
#X floatatom 565 355 5 0 0 0 - - - 0;
#X obj 565 329 snapshot~;
#X obj 565 298 metro 100;
#X obj 566 270 tgl 19 0 empty empty empty 0 -10 0 12 #fcfcfc #000000 #000000 0 1;
#X obj 516 468 hsl 245 19 0 1 0 0 empty empty empty -2 -10 0 12 #fcfcfc #000000 #000000 0 1;
#X obj 37 37;
#X msg 193 234 close;
#X msg 187 143 devices;
#X obj 168 344 bng 15 250 50 0 empty empty empty 17 7 0 10 #fcfcfc #000000 #000000;
#X obj 168 504 list trim;
#X floatatom 168 639 5 0 0 0 - - - 0;
#X msg 189 176 open 2;
#X obj 250 396 list prepend;
#X obj 316 352 t l;
#X obj 168 440 list append;
#X obj 168 317 select 13 10;
#X obj 168 476 fudiparse;
#X msg 191 206 baud 115200;
#X obj 168 536 route D;
#N canvas 0 22 450 278 (subpatch) 0;
#X array array1 100 float 5;
#A 0 12728 12719 12708 12716 12716 12723 12731 12719 12712 12714 12721 12712 12720 12730 12722 12729 12722 12720 12720 12721 12723 12724 12718 12716 12717 12727 12714 12716 12725 12718 12717 12727 12717 12718 12727 12720 12723 12726 12721 12733 12713 12714 12727 12713 12724 12724 12718 12728 12723 12719 12725 12721 12719 12718 12709 12725 12733 12718 12713 12716 12726 12717 12719 12729 12716 12720 12727 12723 12725 12720 12717 12720 12714 12710 12713 12720 12715 12709 12719 12707 12714 12718 12711 12716 12723 12726 12730 12725 12718 12725 12723 12709 12718 12727 12723 12723 12723 12714 12719 12721;
#X coords 0 70000 99 0 200 140 1 0 0;
#X restore 307 443 graph;
#X obj 168 680 tabwrite array1;
#X floatatom 270 638 5 0 0 0 - - - 0;
#X obj 270 603 cyclone/counter 0 100;
#X obj 270 571 bng 16 250 50 0 empty empty empty 0 -8 0 10 #fcfcfc #000000 #000000;
#X obj 168 290 comport 2 115200;
#X floatatom 67 680 9 0 0 0 - - - 0;
#X floatatom 67 738 5 0 0 0 - - - 0;
#X obj 67 645 / 200000;
#X obj 66 709 * 2;
#X obj 672 372 bng 19 250 50 0 empty empty empty 17 7 0 10 #dfdfdf #000000 #000000;
#X obj 672 337 threshold~ 0.99 1 1 1;
#X msg 456 196 1;
#X obj 568 238 loadbang;
#X obj 68 764 sig~;
#X obj 65 792 threshold~ 0.3 0 0.2 0;
#X msg 457 228 0;
#X obj 206 837 bng 19 250 50 0 empty empty empty 0 -10 0 12 #fcfcfc #000000 #000000;
#X obj 73 850 bng 19 250 50 0 empty empty empty 0 -10 0 12 #fcfcfc #000000 #000000;
#X msg 504 67 read ~/Desktop/Water-Drop.wav sample, f 72;
#X connect 0 0 1 0;
#X connect 0 1 1 1;
#X connect 3 0 0 0;
#X connect 4 0 0 0;
#X connect 5 0 0 0;
#X connect 6 0 0 0;
#X connect 7 0 0 0;
#X connect 8 0 0 0;
#X connect 9 0 0 0;
#X connect 10 0 0 0;
#X connect 11 0 10 0;
#X connect 12 0 9 0;
#X connect 13 0 7 0;
#X connect 13 0 22 0;
#X connect 14 0 6 0;
#X connect 14 0 21 0;
#X connect 15 0 5 0;
#X connect 15 0 20 0;
#X connect 16 0 4 0;
#X connect 16 0 19 0;
#X connect 17 0 3 0;
#X connect 17 0 18 0;
#X connect 24 0 25 0;
#X connect 24 0 38 1;
#X connect 25 0 33 0;
#X connect 27 0 80 0;
#X connect 28 0 30 0;
#X connect 30 1 29 0;
#X connect 31 0 30 0;
#X connect 32 0 30 0;
#X connect 33 0 35 0;
#X connect 34 0 35 0;
#X connect 34 1 36 1;
#X connect 35 0 36 0;
#X connect 36 0 37 0;
#X connect 37 0 38 0;
#X connect 37 0 72 0;
#X connect 37 0 43 0;
#X connect 38 0 40 0;
#X connect 39 0 34 0;
#X connect 40 0 0 1;
#X connect 41 0 35 0;
#X connect 42 0 46 0;
#X connect 43 0 42 0;
#X connect 44 0 43 0;
#X connect 45 0 44 0;
#X connect 48 0 66 0;
#X connect 49 0 66 0;
#X connect 50 0 54 1;
#X connect 50 0 56 0;
#X connect 51 0 60 0;
#X connect 52 0 62 0;
#X connect 52 0 69 0;
#X connect 53 0 66 0;
#X connect 54 0 56 1;
#X connect 54 0 55 0;
#X connect 55 0 54 1;
#X connect 56 0 58 0;
#X connect 57 0 50 0;
#X connect 57 2 54 0;
#X connect 58 0 51 0;
#X connect 59 0 66 0;
#X connect 60 0 52 0;
#X connect 60 0 65 0;
#X connect 63 0 62 1;
#X connect 64 0 63 0;
#X connect 65 0 64 0;
#X connect 66 0 57 0;
#X connect 67 0 70 0;
#X connect 68 0 75 0;
#X connect 68 0 34 0;
#X connect 69 0 67 0;
#X connect 70 0 68 0;
#X connect 71 0 41 0;
#X connect 72 0 71 0;
#X connect 73 0 35 0;
#X connect 74 0 45 0;
#X connect 75 0 76 0;
#X connect 76 0 73 0;
#X connect 76 0 79 0;
#X connect 76 1 77 0;
#X connect 76 1 78 0;
#X connect 77 0 37 0;
#X connect 80 0 24 0;
