#N canvas 261 96 1007 656 12;
#X msg 466 273 rewind;
#X obj 417 434 print done;
#X obj 364 383 textfile;
#X msg 456 216 clear;
#X obj 364 463 print line;
#X obj 417 409 bng 19 250 50 0 empty empty empty 17 7 0 10 #dfdfdf #000000 #000000;
#X obj 361 250 bng 19 250 50 0 empty empty empty 17 7 0 10 #dfdfdf #000000 #000000;
#X msg 458 246 read ~/Desktop/values.txt;
#X obj 300 503 osc~;
#X obj 288 547 dac~;
#X msg 254 458 0;
#X obj 299 421 / 10;
#X floatatom 299 457 5 0 0 0 - - - 0;
#X obj 361 218 metro;
#X obj 361 172 tgl 19 0 empty empty empty 0 -10 0 12 #fcfcfc #000000 #000000 0 1;
#X floatatom 396 175 5 0 0 0 - - - 0;
#X connect 0 0 2 0;
#X connect 2 0 4 0;
#X connect 2 0 11 0;
#X connect 2 1 5 0;
#X connect 3 0 2 0;
#X connect 5 0 1 0;
#X connect 6 0 2 0;
#X connect 7 0 2 0;
#X connect 8 0 9 0;
#X connect 8 0 9 1;
#X connect 10 0 8 0;
#X connect 11 0 12 0;
#X connect 12 0 8 0;
#X connect 13 0 6 0;
#X connect 14 0 13 0;
#X connect 15 0 13 1;
