#N canvas 1089 119 881 948 12;
#X msg 58 296 close;
#X msg 37 158 devices;
#X obj 33 406 bng 15 250 50 0 empty empty empty 17 7 0 10 #fcfcfc #000000 #000000;
#X obj 33 566 list trim;
#X floatatom 33 701 5 0 0 0 - - - 0;
#X obj 115 458 list prepend;
#X obj 181 414 t l;
#X obj 33 502 list append;
#X obj 33 379 select 13 10;
#X obj 33 538 fudiparse;
#X msg 56 268 baud 115200;
#X obj 33 598 route D;
#N canvas 0 22 450 278 (subpatch) 0;
#X array array1 100 float 5;
#A 0 967 968 970 972 0 966 967 970 969 966 969 968 967 969 969 967 967 967 967 967 965 966 961 967 966 958 988 969 967 967 990 967 967 965 965 969 967 963 964 968 964 970 966 968 967 966 966 966 966 967 968 966 944 968 970 969 967 967 985 969 963 963 967 955 968 968 970 965 966 966 964 968 964 958 968 968 969 970 974 958 951 970 969 968 970 967 968 968 964 967 967 965 967 968 969 968 966 967 968 967;
#X coords 0 8192 99 0 200 140 1 0 0;
#X restore 172 505 graph;
#X obj 33 802 tabwrite array1;
#X floatatom 135 700 5 0 0 0 - - - 0;
#X obj 135 665 cyclone/counter 0 100;
#X obj 135 633 bng 16 250 50 0 empty empty empty 0 -8 0 10 #fcfcfc #000000 #000000;
#X obj 33 352 comport 2 115200;
#X floatatom 54 198 5 0 0 0 - - - 0;
#X msg 54 238 open \$1;
#X msg 142 303 open;
#X obj 256 790 osc~;
#X msg 298 747 0;
#X obj 461 714 freeverb~;
#X obj 478 740 dac~;
#X msg 460 220 roomsize \$1;
#X msg 460 265 damping \$1;
#X msg 460 309 width \$1;
#X msg 460 353 wet \$1;
#X msg 460 397 dry \$1;
#X msg 494 420 print;
#X msg 513 459 freeze \$1;
#X msg 518 496 bypass \$1;
#X obj 518 477 tgl 15 0 empty empty empty 0 -6 0 8 #fcfcfc #000000 #000000 0 1;
#X obj 513 440 tgl 15 0 empty empty empty 0 -6 0 8 #fcfcfc #000000 #000000 0 1;
#X obj 472 374 hsl 60 18 0 1 0 1 empty empty dry 2 9 1 12 #d8fcd8 #000000 #000000 600 0;
#X obj 472 330 hsl 60 18 0 1 0 1 empty empty wet 2 9 1 12 #d8fcd8 #000000 #000000 4400 0;
#X obj 472 286 hsl 60 18 0 1 0 1 empty empty width 2 9 1 12 #fcfcc8 #000000 #000000 5900 0;
#X obj 472 242 hsl 60 18 0 2 0 1 empty empty damping 2 9 1 12 #fce0e0 #000000 #000000 500 0;
#X obj 472 197 hsl 60 18 0.11 1.1 0 1 empty empty roomsize 2 9 1 12 #fce0e0 #000000 #000000 4500 0;
#X floatatom 442 201 3 0 0 0 - - - 0;
#X floatatom 442 246 3 0 0 0 - - - 0;
#X floatatom 442 291 3 0 0 0 - - - 0;
#X floatatom 442 334 3 0 0 0 - - - 0;
#X floatatom 442 378 3 0 0 0 - - - 0;
#X obj 472 215;
#X obj 177 763 / 10;
#X connect 0 0 17 0;
#X connect 1 0 17 0;
#X connect 2 0 5 1;
#X connect 2 0 7 0;
#X connect 3 0 11 0;
#X connect 4 0 13 0;
#X connect 4 0 46 0;
#X connect 5 0 7 1;
#X connect 5 0 6 0;
#X connect 6 0 5 1;
#X connect 7 0 9 0;
#X connect 8 0 2 0;
#X connect 8 2 5 0;
#X connect 9 0 3 0;
#X connect 10 0 17 0;
#X connect 11 0 4 0;
#X connect 11 0 16 0;
#X connect 14 0 13 1;
#X connect 15 0 14 0;
#X connect 16 0 15 0;
#X connect 17 0 8 0;
#X connect 18 0 19 0;
#X connect 19 0 17 0;
#X connect 20 0 17 0;
#X connect 21 0 23 1;
#X connect 22 0 21 0;
#X connect 23 0 24 0;
#X connect 23 1 24 1;
#X connect 25 0 23 0;
#X connect 26 0 23 0;
#X connect 27 0 23 0;
#X connect 28 0 23 0;
#X connect 29 0 23 0;
#X connect 30 0 23 0;
#X connect 31 0 23 0;
#X connect 32 0 23 0;
#X connect 33 0 32 0;
#X connect 34 0 31 0;
#X connect 35 0 29 0;
#X connect 35 0 44 0;
#X connect 36 0 28 0;
#X connect 36 0 43 0;
#X connect 37 0 27 0;
#X connect 37 0 42 0;
#X connect 38 0 26 0;
#X connect 38 0 41 0;
#X connect 39 0 25 0;
#X connect 39 0 40 0;
#X connect 46 0 21 0;
